<svg width="148" height="40" fill="#ffffff" xmlns="http://www.w3.org/2000/svg" shape-rendering="geometricPrecision" text-rendering="geometricPrecision" image-rendering="optimizeQuality" fill-rule="evenodd" clip-rule="evenodd" viewBox="0 0 449 511.481"><path d="M223.032.036c-1.917.278-3.68 2.624-5.289 7.074-3.003 9.471-6.572 20.954-10.279 33.635l-12.21 4.494 8.223 9.45a1046.492 1046.492 0 00-4.346 16.034l-12.317 4.534 8.647 9.94a773.247 773.247 0 00-3.532 15.087l-13.556 4.99 10.084 11.59a479.893 479.893 0 00-3.553 20.484l-9.045 3.33 7.458 8.571c-1.974 17.029-2.406 32.641-.432 45.211 2.925 18.623 16.195 41.593 24.044 59.91l10.086 23.535c5.785 19.217 11.718 13.166 16.941.704 8.925-21.286 14.611-41.812 24.664-64.206 5.897-19.732 7.085-41.047 5.43-62.823l9.484-10.902-11.038-4.063a349.464 349.464 0 00-2.885-18.226l11.409-13.115-15.298-5.632a583.253 583.253 0 00-3.114-12.923l9.971-11.462-14.418-5.306a1216.703 1216.703 0 00-3.809-13.462l9.787-11.25-14.664-5.397c-1.125-3.81-2.238-7.569-3.321-11.263l-.524-1.784 10.068-11.573-15.032-5.532c-1.605-4.921-4.049-10.176-7.634-9.654zm64.691 331.088c-37.946 42.882-78.255 77.495-73.608 38.731 11.364-25.988 22.534-52.21 33.748-78.377l-5.413-11.926 10.819-.679 4.795-11.137-5.421-11.949 10.886-.684c1.593-3.67 3.189-7.336 4.789-10.998l-5.484-12.085 11.093-.696c1.571-3.563 3.144-7.121 4.725-10.671l-5.626-12.399 11.5-.722c1.519-3.369 3.043-6.732 4.572-10.088l-5.88-12.957 12.184-.764c1.421-3.067 2.848-6.127 4.28-9.18l-6.272-13.821 13.223-.831c1.263-2.632 2.531-5.258 3.804-7.878l-6.835-15.058 14.704-.923c1.021-2.044 2.047-4.086 3.076-6.123l-7.587-16.72 16.729-1.051c2.72-5.194 5.469-10.355 8.247-15.479 25.323-38.694 21.557-22.706 17.858 35.014-5.977 93.268-2.69 124.626-68.906 199.451zM235.015 510.78c-46.498 4.488-93.903-12.454-122.365-54.677 52.429 7.927 115.413-43.293 174.573-104.19l-.72-12.355 7.871 4.931a1449.37 1449.37 0 0013.204-14.024l-.846-14.541 9.043 5.667c3.816-4.162 7.606-8.331 11.364-12.494l-.948-16.274 9.96 6.241a4506.82 4506.82 0 009.165-10.279l-.88-15.095 9.174 5.747 5.594-6.315-.9-15.479 9.398 5.888c3.739-4.216 7.42-8.354 11.045-12.409l-1.124-19.298 11.823 7.408c2.092-2.306 4.167-4.585 6.212-6.812l-1.218-20.946 13.107 8.213a702.081 702.081 0 017.119-7.381l-.999-17.144 11.206 7.02a325.37 325.37 0 015.476-5.138l-.897-15.41 10.81 6.773c4.536-5.437 11.655-3.475 7.466 5.66-15.324 50.104-30.685 100.49-49.511 146.211-32.714 79.456-65.279 161.05-163.202 170.502zm-49.368-248.127l9.128.572-4.513 9.946c8.935 19.848 21.284 46.227 19.771 64.398-.848 10.193-5.149 18.781-13.213 25.611-19.954-16.04-36.693-32.727-50.887-49.922-45.004-54.5-42.368-68.208-49.036-134.447l-8.799-87.433c-1.617-9.887-1.411-15.829.884-17.235 4.862-2.973 14.765 16.229 17.752 21.671l16.697 1.049-7.213 15.896a664.247 664.247 0 013.718 7.011l13.687.858-6.246 13.764c1.528 3.081 3.038 6.168 4.532 9.256l11.907.747-5.632 12.408a2853.32 2853.32 0 015.002 10.678l10.822.68-5.189 11.434a4582.01 4582.01 0 005.461 11.709l9.92.623-4.716 10.392c1.424 2.988 2.86 5.974 4.312 8.955l1.64 3.857 8.956.562-4.499 9.916 5.649 13.283 9.042.568-4.544 10.012 5.607 13.181zm-30.01 81.152l11.537-2.65-1.788 12.911 23.325 24.555c19.994 16.464 15.395 31.634-6.338 45.901-39.923 26.208-73.74 25.898-103.254-16.426-19.008-27.254-32.351-78.067-43.515-110.819L1.128 196.145c-3.779-10.508 2.759-10.892 7.53-7.067l3.747 3.944 14.767-3.389-2.29 16.525 5.535 5.826 14.145-3.248-2.191 15.831 6.059 6.379 13.525-3.106-2.097 15.136 5.224 5.5 16.537-3.797-2.564 18.506 4.57 4.811 15.455-3.548-2.397 17.295 4.918 5.176 13.4-3.076-2.077 14.995 6.69 7.043 12.777-2.934-1.981 14.301 7.216 7.595 12.157-2.791-1.885 13.605 7.739 8.148z"/></svg>